<?xml version="1.0" encoding="utf-8"?>
<!-- Generator: Adobe Illustrator 21.0.0, SVG Export Plug-In . SVG Version: 6.00 Build 0)  -->
<svg version="1.1" id="Layer_1" xmlns="http://www.w3.org/2000/svg" xmlns:xlink="http://www.w3.org/1999/xlink" x="0px" y="0px"
	 viewBox="0 0 512 512" style="enable-background:new 0 0 512 512;" xml:space="preserve">
<style type="text/css">
	.st0{fill:#004BFF;stroke:#000000;stroke-width:0.25;stroke-miterlimit:10;}
	.st1{fill:#4885FF;stroke:#000000;stroke-width:0.25;stroke-miterlimit:10;}
</style>
<path class="st0" d="M256,0.7C114.8,0.7,0,115.5,0,256.7c14.1,339.6,498,339.5,512,0C512,115.5,397.2,0.7,256,0.7L256,0.7z
	 M256.5,500.2C123.4,500.2,15,391.8,15,258.7c13.3-320.4,469.7-320.3,483,0C498,391.8,389.6,500.2,256.5,500.2z"/>
<path class="st1" d="M256,70.7c-102.5,0-185.9,83.4-185.9,185.9c10.2,246.7,361.7,246.6,371.9,0C441.9,154.1,358.5,70.7,256,70.7z
	 M256,428.5c-94.8,0-171.8-77.1-171.8-171.8c9.5-228,334.2-227.9,343.6,0C427.8,351.4,350.8,428.5,256,428.5z"/>
<path class="st0" d="M256,221.1c22.4,0,40.6-18.2,40.6-40.6c-2.2-53.9-79.1-53.9-81.4,0C215.4,202.9,233.6,221.1,256,221.1z
	 M256,165.7c8.1,0,14.8,6.6,14.8,14.8c-0.8,19.6-28.7,19.6-29.6,0C241.3,172.2,247.9,165.7,256,165.7z"/>
<path class="st0" d="M256,292.2c-22.4,0-40.6,18.2-40.6,40.6c2.2,53.9,79.1,53.9,81.4,0C296.6,310.4,278.4,292.2,256,292.2z
	 M256,347.7c-8.1,0-14.8-6.6-14.8-14.8c0.8-19.6,28.7-19.6,29.6,0C270.8,341.1,264.1,347.7,256,347.7z"/>
<path class="st0" d="M179.7,216c-22.4,0-40.6,18.2-40.6,40.6c2.2,53.9,79.1,53.9,81.4,0C220.5,234.3,202.2,216,179.7,216L179.7,216z
	 M179.7,271.4c-8.1,0-14.8-6.6-14.8-14.8c0.8-19.6,28.7-19.6,29.6,0C194.6,264.8,187.9,271.4,179.7,271.4z"/>
<path class="st0" d="M332.3,216c-22.4,0-40.6,18.2-40.6,40.6c2.2,53.9,79.1,53.9,81.4,0C372.9,234.3,354.7,216,332.3,216L332.3,216z
	 M332.3,271.4c-8.1,0-14.8-6.6-14.8-14.8c0.8-19.6,28.7-19.6,29.6,0C347,264.8,340.4,271.4,332.3,271.4z"/>
</svg>
