<?xml version="1.0" encoding="utf-8"?>
<!-- Generator: Adobe Illustrator 21.0.0, SVG Export Plug-In . SVG Version: 6.00 Build 0)  -->
<svg version="1.1" id="Layer_1" xmlns:svgjs="http://svgjs.com/svgjs"
	 xmlns="http://www.w3.org/2000/svg" xmlns:xlink="http://www.w3.org/1999/xlink" x="0px" y="0px" viewBox="0 0 512 512"
	 style="enable-background:new 0 0 512 512;" xml:space="preserve">
<style type="text/css">
	.st0{fill:#FFFFFF;}
	.st1{fill:#004BFF;}
</style>
<path id="XMLID_1580_" class="st0" d="M456.2,212.3L433.5,228c-1.7,1.2-3.6,1.9-5.7,2.2l-253.2,33.5c-1.4,0.2-2.9,0.1-4.3-0.2
	L58.4,240.2l119.4-82.6c2.4-1.7,5.4-2.3,8.2-1.7L456.2,212.3z"/>
<path id="XMLID_1594_" class="st0" d="M499.9,167.5l-62.6,43.3l-10.8,7.5l-253.7,33.5l-18.3-3.8L16,219.1
	c-9.1-1.9-11.6-13.8-3.9-19.2L177.8,85.3c2.4-1.7,5.4-2.3,8.2-1.7l310,64.6C505.2,150.2,507.6,162.2,499.9,167.5z"/>
<path id="XMLID_1596_" class="st0" d="M426.5,218.3l-90.6-54.2c-3.3-2-7.4-2-10.8-0.1l-152.2,87.8L426.5,218.3z"/>
<path id="XMLID_1598_" class="st1" d="M403.3,369.8l-73.3,50.7c-0.7,0.5-1.6,0.7-2.4,0.5l-66.7-13.9c-4.1-0.8-8,1.8-8.9,5.8
	s1.8,8,5.8,8.9l66.7,13.9c1.2,0.3,2.4,0.4,3.7,0.4c3.7,0,7.3-1.1,10.3-3.2l73.3-50.7c3.4-2.4,4.3-7,1.9-10.4
	C411.4,368.3,406.7,367.4,403.3,369.8z"/>
<path id="XMLID_1599_" class="st1" d="M511.6,227.4c-1.5-7.2-6.9-12.6-14.1-14.2l-29.6-6.2c0,0-0.1,0-0.1,0l-9.2-1.9l45.5-31.5
	c6.1-4.2,8.9-11.3,7.5-18.5c-1.5-7.2-6.9-12.6-14.1-14.2L293.7,98.5c-4.1-0.8-8,1.8-8.9,5.8c-0.8,4.1,1.8,8,5.8,8.9l203.9,42.5
	c1.8,0.4,2.3,1.7,2.4,2.4c0.2,0.8,0.2,2.2-1.3,3.2l-69.5,48.1l-86.5-51.7c-5.6-3.4-12.7-3.4-18.4-0.1l-149.7,86.4l-154-32.1
	c-1.8-0.4-2.3-1.7-2.4-2.4c-0.2-0.8-0.2-2.2,1.3-3.2L182.1,91.5c0.7-0.5,1.6-0.7,2.4-0.5l69.2,14.4c4.1,0.8,8-1.8,8.9-5.8
	c0.8-4.1-1.8-8-5.8-8.9l-69.2-14.4c-4.8-1-10,0-14,2.8L7.8,193.8c-6.1,4.2-8.9,11.3-7.5,18.5c1.5,7.2,6.9,12.6,14.1,14.2l38.9,8.1
	L7.8,266.1c-6.1,4.2-8.9,11.3-7.5,18.5c1.5,7.2,6.9,12.6,14.1,14.2l38.9,8.1L7.8,338.4c-6.1,4.2-8.9,11.3-7.5,18.5
	c1.5,7.2,6.9,12.6,14.1,14.2L220,413.9c0.5,0.1,1,0.2,1.5,0.2c3.5,0,6.6-2.4,7.3-6c0.8-4.1-1.8-8-5.8-8.9L17.5,356.3
	c-1.8-0.4-2.3-1.7-2.4-2.4c-0.2-0.8-0.2-2.2,1.3-3.2l57.2-39.6l250.9,52.3c1.2,0.3,2.4,0.4,3.7,0.4c3.7,0,7.3-1.1,10.3-3.2
	l103.2-71.4l52.9,11c1.8,0.4,2.3,1.7,2.4,2.4c0.2,0.8,0.2,2.2-1.3,3.2L433.3,349c-3.4,2.4-4.3,7-1.9,10.4c1.5,2.1,3.8,3.2,6.2,3.2
	c1.5,0,3-0.4,4.3-1.3l62.3-43.1c6.1-4.2,8.9-11.3,7.5-18.5c-1.5-7.2-6.9-12.6-14.1-14.2l-38.9-8.1l45.5-31.5
	C510.2,241.7,513.1,234.6,511.6,227.4z M458.9,220.5V259l-24.4,16.9v-54l7.1-4.9L458.9,220.5z M382.6,231.7v80.1l-24.4,16.9v-93.8
	L382.6,231.7z M397.6,229.7l21.9-2.9v59.5l-21.9,15.2V229.7z M328.8,170.5c1-0.6,2.2-0.6,3.2,0l72.2,43.2l-194.8,25.8L328.8,170.5z
	 M129.4,250.5l24.4,5.1v57l-24.4-5.1V250.5z M114.4,304.3l-21.9-4.6v-57l21.9,4.6V304.3z M168.8,258.7l2.5,0.5
	c0.8,0.2,1.7,0.2,2.5,0.1l16.9-2.2v63.1l-21.9-4.6V258.7z M205.7,255.1l24.4-3.2v76.6l-24.4-5.1V255.1z M245,249.9L267,247v89.1
	l-21.9-4.6L245,249.9L245,249.9z M282,245l24.4-3.2v102.6l-24.4-5.1V245z M77.5,239.6v57l-24.4-5.1V253l20.5-14.2L77.5,239.6z
	 M15.1,281.6c-0.2-0.8-0.2-2.2,1.3-3.2l21.8-15.1v25l-20.6-4.3C15.8,283.7,15.2,282.4,15.1,281.6z M329.9,348.2
	c-0.7,0.5-1.6,0.7-2.4,0.5l-6.2-1.3V239.8l21.9-2.9V339L329.9,348.2z M495.6,233.6l-21.8,15.1v-25l20.6,4.3c1.8,0.4,2.3,1.7,2.4,2.4
	C497.1,231.1,497.1,232.6,495.6,233.6z"/>
</svg>
