<?xml version="1.0" encoding="utf-8"?>
<!-- Generator: Adobe Illustrator 21.0.0, SVG Export Plug-In . SVG Version: 6.00 Build 0)  -->
<svg version="1.1" id="Layer_1" xmlns:svgjs="http://svgjs.com/svgjs"
	 xmlns="http://www.w3.org/2000/svg" xmlns:xlink="http://www.w3.org/1999/xlink" x="0px" y="0px" viewBox="0 0 512 512"
	 style="enable-background:new 0 0 512 512;" xml:space="preserve">
<style type="text/css">
	.st0{fill:#FFFFFF;}
	.st1{fill:#C7DDFF;}
	.st2{fill:#004BFF;}
</style>
<g>
	<path class="st0" d="M501.1,237.8l-28.3-58.4c-1.2-2.4-1.2-5.2,0-7.6l23.9-49.3c2.8-5.8-1.4-12.6-7.9-12.6H158.4v394.8h330
		c6.5,0,10.7-6.8,7.9-12.6l-23.6-48.6c-1.2-2.4-1.2-5.2,0-7.6l28.3-58.4c1.2-2.4,1.2-5.2,0-7.6l-28.3-58.4c-1.2-2.4-1.2-5.2,0-7.6
		l28.3-58.4C502.2,243,502.2,240.2,501.1,237.8z"/>
	<path class="st1" d="M472.7,311.5c-1.2-2.4-1.2-5.2,0-7.6l28.3-58.4c1.2-2.4,1.2-5.2,0-7.6l-28.3-58.4c-1.2-2.4-1.2-5.2,0-7.6
		l23.9-49.3c2.8-5.8-1.4-12.6-7.9-12.6h-45.2c6.5,0,10.7,6.8,7.9,12.6l-23.9,49.3c-1.2,2.4-1.2,5.2,0,7.6l28.3,58.4
		c1.2,2.4,1.2,5.2,0,7.6l-28.3,58.4c-1.2,2.4-1.2,5.2,0,7.6l28.3,58.4c1.2,2.4,1.2,5.2,0,7.6l-28.3,58.4c-1.2,2.4-1.2,5.2,0,7.6
		l21.8,45H158.4v16.2h284.8h45.2c6.5,0,10.7-6.8,7.9-12.6l-2.6-5.4l0,0l-21-43.2c-1.2-2.4-1.2-5.2,0-7.6l28.3-58.4
		c1.2-2.4,1.2-5.2,0-7.6L472.7,311.5z"/>
	<path class="st0" d="M200.2,504.8H56.4c-25.6,0-46.3-20.7-46.3-46.3V56c0-26.9,21.8-48.7,48.7-48.7h141.5
		C227.2,7.3,249,29.1,249,56v400C249,482.9,227.2,504.8,200.2,504.8z"/>
	<g>
		<path class="st1" d="M200.2,7.3h-45.2c26.9,0,48.7,21.8,48.7,48.7v400c0,26.9-21.8,48.7-48.7,48.7h45.2
			c26.9,0,48.7-21.8,48.7-48.7V56C249,29.1,227.2,7.3,200.2,7.3z"/>
		<path class="st1" d="M191.7,504.8H56.4c-25.6,0-46.3-20.7-46.3-46.3l0,0c0-25.6,20.7-46.3,46.3-46.3h135.3
			c25.6,0,46.3,20.7,46.3,46.3l0,0C238,484,217.3,504.8,191.7,504.8z"/>
	</g>
	<path class="st2" d="M479.2,308.3c-0.2-0.4-0.2-0.9,0-1.3l28.3-58.4c2.2-4.5,2.2-9.6,0-14l-28.3-58.4c-0.2-0.4-0.2-0.9,0-1.3
		l23.9-49.3c2.4-5,2.1-10.8-0.8-15.5c-3-4.7-8-7.5-13.6-7.5h-71.4c-4,0-7.3,3.3-7.3,7.3s3.3,7.3,7.3,7.3h71.4c0.7,0,1,0.4,1.2,0.7
		s0.4,0.8,0.1,1.4l-23.9,49.3c-2.2,4.4-2.2,9.6,0,14l28.3,58.4c0.2,0.4,0.2,0.9,0,1.3l-28.3,58.4c-2.2,4.5-2.2,9.6,0,14l28.3,58.4
		c0.2,0.4,0.2,0.9,0,1.3l-28.3,58.4c-2.2,4.5-2.2,9.6,0,14l23.6,48.6c0.3,0.6,0.1,1.1-0.1,1.4c-0.2,0.3-0.6,0.7-1.2,0.7H237.9
		c0,0,0,0,0,0c0.7-0.6,1.3-1.2,2-1.9c0.2-0.2,0.4-0.5,0.6-0.7c0.4-0.4,0.9-0.9,1.3-1.3c0.2-0.3,0.5-0.6,0.7-0.8
		c0.4-0.4,0.7-0.8,1.1-1.3c0.3-0.3,0.5-0.6,0.7-0.9c0.3-0.4,0.7-0.8,1-1.3c0.2-0.3,0.5-0.7,0.7-1c0.3-0.4,0.6-0.8,0.9-1.3
		c0.2-0.4,0.5-0.7,0.7-1.1c0.3-0.4,0.5-0.9,0.8-1.3c0.2-0.4,0.4-0.7,0.6-1.1c0.2-0.4,0.5-0.9,0.7-1.3c0.2-0.4,0.4-0.8,0.6-1.1
		c0.2-0.5,0.4-0.9,0.7-1.4c0.2-0.4,0.4-0.8,0.5-1.2c0.2-0.5,0.4-0.9,0.6-1.4c0.2-0.4,0.3-0.8,0.5-1.2c0.2-0.5,0.4-1,0.5-1.4
		c0.1-0.4,0.3-0.8,0.4-1.2c0.2-0.5,0.3-1,0.5-1.5c0.1-0.4,0.2-0.8,0.4-1.2c0.1-0.5,0.3-1,0.4-1.5c0.1-0.4,0.2-0.8,0.3-1.2
		c0.1-0.5,0.2-1.1,0.3-1.6c0.1-0.4,0.2-0.8,0.2-1.2c0.1-0.6,0.2-1.1,0.2-1.7c0-0.4,0.1-0.8,0.1-1.2c0.1-0.6,0.1-1.3,0.2-2
		c0-0.3,0.1-0.7,0.1-1c0.1-1,0.1-2,0.1-3V117.2H372c4,0,7.3-3.3,7.3-7.3s-3.3-7.3-7.3-7.3H256.3V56c0-30.9-25.1-56-56-56H58.8
		c-30.9,0-56,25.1-56,56v257.5c0,4,3.3,7.3,7.3,7.3s7.3-3.3,7.3-7.3V56c0-22.9,18.6-41.4,41.4-41.4h141.4
		c22.9,0,41.4,18.6,41.4,41.4v53.9V439c-7.8-20-27.2-34.2-50-34.2H56.4c-15.4,0-29.3,6.5-39,16.9v-62.2c0-4-3.3-7.3-7.3-7.3
		s-7.3,3.3-7.3,7.3V456c0,0.4,0,0.8,0,1.2c0,0.4,0,0.8,0,1.2c0,29.6,24,53.6,53.6,53.6h2.4h132.9h8.5h288.2c5.6,0,10.6-2.8,13.6-7.5
		s3.3-10.5,0.8-15.5l-23.6-48.6c-0.2-0.4-0.2-0.9,0-1.3l28.3-58.4c2.2-4.5,2.2-9.6,0-14L479.2,308.3z M191.7,497.4H58.8
		c-22.4,0-40.8-17.9-41.4-40.2c0.6-21,17.9-37.8,39-37.8h135.3c21.5,0,39,17.5,39,39C230.8,479.9,213.2,497.4,191.7,497.4z"/>
	<path class="st2" d="M191.7,430.8H56.4c-7.6,0-14.6,3-19.9,8.5c-5.3,5.5-8,12.6-7.7,20.2c0.6,14.9,12.9,26.6,28.1,26.6h134.8
		c4,0,7.3-3.3,7.3-7.3s-3.3-7.3-7.3-7.3H56.9c-7.2,0-13.3-5.6-13.5-12.5c-0.1-3.6,1.2-7,3.6-9.6c2.5-2.6,5.8-4,9.4-4h135.3
		c3.8,0,7.3,1.6,9.8,4.5c0.1,0.1,0.3,0.3,0.1,0.8c-0.2,0.5-0.6,0.5-0.8,0.5h-62.6c-4,0-7.3,3.3-7.3,7.3c0,4,3.3,7.3,7.3,7.3h62.6
		c6.1,0,11.5-3.5,14.1-9.1c2.5-5.5,1.6-11.8-2.4-16.4C207.3,434.2,199.7,430.8,191.7,430.8z"/>
</g>
</svg>
