<svg xmlns="http://www.w3.org/2000/svg" viewBox="0 0 117.8 102.5"><title>logo_2</title><g id="Layer_2" data-name="Layer 2"><g id="Layer_1-2" data-name="Layer 1"><path d="M116.31,3.5c-2.78-3.7-9-5.09-14.8-1A45.74,45.74,0,0,0,90.75,13.33a79.39,79.39,0,0,1-14.69-5.9C53.63-3.9,38.71,3.73,34.66,6.27,28,10.55,24.25,17.26,24.6,24.43c.46,10.41,8.56,16.19,16,17.12,8.67,1.16,16-3.7,18.62-12.26A2.19,2.19,0,1,0,55,27.9c-2.43,7.86-8.79,9.95-13.88,9.25A13.57,13.57,0,0,1,29,24.2c-.23-5.67,2.66-10.87,8.1-14.34,11.1-7.17,26.48-4,37.13,1.39A91.26,91.26,0,0,0,88.32,17c-1.16,1.85-2.2,3.82-3.24,5.9,0,.12-.11.23-.11.35a19.26,19.26,0,0,0-16.08,5.32c-5.32,5.2-8.1,13.88-2.08,21.74A25.46,25.46,0,0,0,69.12,53c-2.77,5.09-5.32,9.83-7.29,13.53C56.4,76.94,49.35,85,41.83,90.12a15.91,15.91,0,0,1-4.16-6.48c-2.08-6.24-1.39-12,2.08-16.42a14.42,14.42,0,0,1,12.38-5.55,2.21,2.21,0,1,0,.46-4.39,18.81,18.81,0,0,0-16.31,7.17C31.88,70,30.84,77.28,33.5,85A21.65,21.65,0,0,0,38,92.43,32.22,32.22,0,0,1,27.14,95.9c-8.67.92-16.77-2.66-23.25-10.41A2.21,2.21,0,0,0,.54,88.39c6.71,8,14.92,12,23.83,12,1,0,2.2-.12,3.24-.12a35.29,35.29,0,0,0,13.76-4.63,38.91,38.91,0,0,0,5.9,3.7,34.07,34.07,0,0,0,14.34,3.12A36.91,36.91,0,0,0,75.14,100c9.14-3.47,15.5-10.76,17-19.31,1.39-7.52-1.39-14.92-7.52-20.24-1.73-1.5-3.59-2.89-5.32-4.28s-3.35-2.54-5-3.82c4.4-8.21,9.14-17,12.61-23.83h0a14.06,14.06,0,0,1,3.7,2.31,8.41,8.41,0,0,1,2.77,9.14,8,8,0,0,1-7.29,5.55A2.27,2.27,0,0,0,84,47.79a2.37,2.37,0,0,0,2.31,2.08,12.16,12.16,0,0,0,11.22-8.56,12.54,12.54,0,0,0-4-13.88A19.06,19.06,0,0,0,89,24.66a52.06,52.06,0,0,1,3.59-6.24c10.64,2.31,17.12-.12,20.93-3.12,5.09-3.93,5.09-8.79,2.78-11.8M76.76,59.82c1.73,1.39,3.47,2.55,5.09,4,5,4.4,7.17,10.18,6,16.19-1.27,7.05-6.59,13-14.23,16a31.07,31.07,0,0,1-24.52-.46,29.91,29.91,0,0,1-3.82-2.2C53,87.81,60.1,79.48,65.66,69c1.85-3.47,4.16-7.86,6.71-12.49,1.39,1,2.89,2.2,4.39,3.35M71.21,49.18a12.23,12.23,0,0,1-1-1.27c-4.63-6.13-2.08-12.37,1.62-16a15.39,15.39,0,0,1,10.87-4.39c-3.24,6.36-7.52,14.22-11.45,21.63m39.67-37.36c-3.59,2.77-8.79,3.7-15.5,2.54A39.26,39.26,0,0,1,104.05,6c3.93-2.77,7.52-1.62,8.79.12s.46,3.7-2,5.67"/></g></g></svg>